<svg id="Layer_1" data-name="Layer 1" xmlns="http://www.w3.org/2000/svg" viewBox="0 0 24 24"><title>icons</title><path d="M21,13.67v-3.3L19,10a6.07,6.07,0,0,0-.63-1.54l1.2-1.65L17.21,4.48,15.52,5.64A7.83,7.83,0,0,0,14,5l-.34-2h-3.3L10,5a7,7,0,0,0-1.53.64L6.82,4.52,4.46,6.84l1.2,1.65A7.55,7.55,0,0,0,5,10.07l-2,.3v3.3L5,14a6.48,6.48,0,0,0,.63,1.53l-1.2,1.69,2.33,2.33,1.69-1.2a7.26,7.26,0,0,0,1.57.63l.34,2h3.3L14,19a8.13,8.13,0,0,0,1.53-.64l1.69,1.2,2.32-2.33-1.19-1.68A7.22,7.22,0,0,0,19,14Zm-9,1.8A3.45,3.45,0,1,1,15.45,12,3.44,3.44,0,0,1,12,15.47Z"/></svg>