<svg xmlns="http://www.w3.org/2000/svg" viewBox="0 0 24 24">
	<path d="M20.66,8.7C19,7.06,16.38,7.37,14.13,7.3c.15.15.46.31.7.54a4.39,4.39,0,0,1,.93,1.4c1.24,0,2.57-.08,3.5.86A3.45,3.45,0,0,1,20.11,12a2.79,2.79,0,0,1-2.8,2.8h-4A3.15,3.15,0,0,1,11.33,14c-1.09-1.09-.93-2.33-.47-3.57h-2a4.7,4.7,0,0,0,.93,5,4.41,4.41,0,0,0,3.35,1.32h4a5.09,5.09,0,0,0,3.73-1.4A5.07,5.07,0,0,0,20.66,8.7ZM7.91,14.76H6.51a3.13,3.13,0,0,1-1.94-.86A3.39,3.39,0,0,1,3.71,12a2.79,2.79,0,0,1,2.8-2.8h4a3.13,3.13,0,0,1,1.94.86c1.09,1.09.86,2.41.47,3.57h2a4.66,4.66,0,0,0-.93-5A4.39,4.39,0,0,0,10.71,7.3h-4A4.58,4.58,0,0,0,2,12a4.55,4.55,0,0,0,4.59,4.59H9.54a3.17,3.17,0,0,1-.78-.63A2.93,2.93,0,0,1,7.91,14.76Z"/>
</svg>