<svg id="Layer_1" data-name="Layer 1" xmlns="http://www.w3.org/2000/svg" viewBox="0 0 300 50"><defs><style>.cls-1{fill:none;}.cls-2{fill:#ff2e45;}.cls-3{fill:#222;}</style></defs><title>dice</title><rect class="cls-1" width="50" height="50"/><circle class="cls-2" cx="25" cy="25" r="6"/><circle class="cls-3" cx="87" cy="13" r="4"/><circle class="cls-3" cx="63" cy="37" r="4"/><rect class="cls-1" x="50" width="50" height="50"/><circle class="cls-3" cx="137" cy="13" r="4"/><circle class="cls-3" cx="113" cy="37" r="4"/><circle class="cls-3" cx="125" cy="25" r="4"/><rect class="cls-1" x="100" width="50" height="50"/><circle class="cls-3" cx="187" cy="13" r="4"/><circle class="cls-3" cx="163" cy="37" r="4"/><circle class="cls-3" cx="163" cy="13" r="4"/><circle class="cls-3" cx="187" cy="37" r="4"/><rect class="cls-1" x="150" width="50" height="50"/><circle class="cls-3" cx="237" cy="13" r="4"/><circle class="cls-3" cx="213" cy="37" r="4"/><circle class="cls-3" cx="213" cy="13" r="4"/><circle class="cls-3" cx="225" cy="25" r="4"/><circle class="cls-3" cx="237" cy="37" r="4"/><rect class="cls-1" x="200" width="50" height="50"/><circle class="cls-3" cx="287" cy="11" r="4"/><circle class="cls-3" cx="263" cy="39" r="4"/><circle class="cls-3" cx="263" cy="11" r="4"/><circle class="cls-3" cx="263" cy="25" r="4"/><circle class="cls-3" cx="287" cy="25" r="4"/><circle class="cls-3" cx="287" cy="39" r="4"/><rect class="cls-1" x="250" width="50" height="50"/></svg>