<?xml version="1.0" encoding="utf-8"?>
<svg width="24" height="24" xmlns="http://www.w3.org/2000/svg">
  <path d="M 20.818 9.972 C 19.333 8.487 16.929 8.769 14.878 8.699 C 15.02 8.84 15.303 8.982 15.515 9.194 C 15.868 9.547 16.151 9.971 16.363 10.466 C 17.495 10.466 18.697 10.396 19.545 11.244 C 19.969 11.669 20.252 12.376 20.323 13.012 C 20.323 14.426 19.192 15.558 17.777 15.558 L 14.1 15.558 C 13.535 15.558 12.757 15.204 12.333 14.78 C 11.343 13.79 11.484 12.659 11.908 11.527 L 10.07 11.527 C 9.575 13.153 9.646 14.78 10.918 16.053 C 11.767 16.901 12.898 17.325 13.959 17.255 L 17.636 17.255 C 18.909 17.255 20.111 16.901 21.03 15.982 C 22.444 14.285 22.374 11.527 20.818 9.972 Z M 9.221 15.487 L 7.948 15.487 C 7.383 15.487 6.605 15.133 6.18 14.709 C 5.756 14.285 5.473 13.578 5.403 12.941 C 5.403 11.527 6.605 10.325 7.948 10.396 L 11.625 10.396 C 12.191 10.396 12.969 10.749 13.393 11.174 C 14.383 12.163 14.171 13.366 13.817 14.426 L 15.656 14.426 C 16.151 12.8 16.08 11.174 14.807 9.901 C 13.959 9.052 12.827 8.628 11.767 8.699 L 8.09 8.699 C 5.685 8.699 3.776 10.608 3.847 12.941 C 3.847 15.204 5.756 17.255 8.019 17.113 L 10.706 17.113 C 10.423 16.972 10.211 16.76 9.999 16.547 C 9.645 16.194 9.362 15.911 9.221 15.487 Z"/>
</svg>