<svg id="Layer_1" data-name="Layer 1" xmlns="http://www.w3.org/2000/svg" viewBox="0 0 24 24"><title>unlinked-chain</title><rect x="3.95" y="11" width="16.1" height="2" transform="translate(15.5 -4.61) rotate(56.89)"/><path d="M7.91,14.76H6.51a3.13,3.13,0,0,1-1.94-.86A3.39,3.39,0,0,1,3.71,12a2.79,2.79,0,0,1,2.8-2.8h1L6.31,7.33a4.62,4.62,0,0,0,.28,9.22h5.76l-1.16-1.79Z"/><path d="M20.66,8.7C19,7.06,16.38,7.37,14.13,7.3H11.6l1.27,1.94h2.89c1.24,0,2.57-.08,3.5.86A3.45,3.45,0,0,1,20.11,12a2.79,2.79,0,0,1-2.8,2.8H16.5l1.2,1.84a4.89,4.89,0,0,0,3.19-1.38A5.07,5.07,0,0,0,20.66,8.7Z"/></svg>